<svg width="173" height="78" viewBox="0 0 173 78" fill="none" xmlns="http://www.w3.org/2000/svg">
<path d="M17.365 21.925H25.054C24.856 22.827 24.537 23.674 24.097 24.466C23.679 25.258 23.14 25.962 22.48 26.578C21.82 27.194 21.028 27.678 20.104 28.03C19.202 28.36 18.179 28.525 17.035 28.525C15.407 28.525 13.933 28.14 12.613 27.37C11.293 26.6 10.237 25.533 9.445 24.169C8.675 22.805 8.29 21.232 8.29 19.45C8.29 17.646 8.675 16.073 9.445 14.731C10.237 13.367 11.293 12.3 12.613 11.53C13.933 10.76 15.407 10.375 17.035 10.375C18.795 10.375 20.324 10.727 21.622 11.431C22.92 12.113 23.932 13.07 24.658 14.302L26.638 12.487C25.978 11.409 25.164 10.507 24.196 9.781C23.25 9.055 22.172 8.505 20.962 8.131C19.774 7.757 18.465 7.57 17.035 7.57C15.363 7.57 13.812 7.867 12.382 8.461C10.952 9.033 9.709 9.858 8.653 10.936C7.597 11.992 6.772 13.246 6.178 14.698C5.606 16.15 5.32 17.734 5.32 19.45C5.32 21.166 5.606 22.75 6.178 24.202C6.772 25.654 7.597 26.919 8.653 27.997C9.709 29.053 10.952 29.878 12.382 30.472C13.812 31.044 15.363 31.33 17.035 31.33C18.795 31.33 20.357 31.011 21.721 30.373C23.107 29.713 24.273 28.822 25.219 27.7C26.165 26.578 26.88 25.302 27.364 23.872C27.848 22.42 28.09 20.891 28.09 19.285H17.365V21.925ZM34.2079 19.45C34.2079 17.712 34.5819 16.161 35.3299 14.797C36.0999 13.433 37.1449 12.355 38.4649 11.563C39.7849 10.771 41.2809 10.375 42.9529 10.375C44.6469 10.375 46.1429 10.771 47.4409 11.563C48.7609 12.355 49.7949 13.433 50.5429 14.797C51.3129 16.161 51.6979 17.712 51.6979 19.45C51.6979 21.188 51.3129 22.739 50.5429 24.103C49.7949 25.467 48.7609 26.545 47.4409 27.337C46.1429 28.129 44.6469 28.525 42.9529 28.525C41.2809 28.525 39.7849 28.129 38.4649 27.337C37.1449 26.545 36.0999 25.467 35.3299 24.103C34.5819 22.739 34.2079 21.188 34.2079 19.45ZM31.2379 19.45C31.2379 21.122 31.5239 22.684 32.0959 24.136C32.6899 25.588 33.5149 26.853 34.5709 27.931C35.6269 28.987 36.8699 29.823 38.2999 30.439C39.7299 31.033 41.2809 31.33 42.9529 31.33C44.6469 31.33 46.1979 31.033 47.6059 30.439C49.0359 29.823 50.2789 28.987 51.3349 27.931C52.3909 26.853 53.2049 25.588 53.7769 24.136C54.3709 22.684 54.6679 21.122 54.6679 19.45C54.6679 17.756 54.3709 16.194 53.7769 14.764C53.2049 13.312 52.3909 12.058 51.3349 11.002C50.2789 9.924 49.0359 9.088 47.6059 8.494C46.1979 7.878 44.6469 7.57 42.9529 7.57C41.2809 7.57 39.7299 7.878 38.2999 8.494C36.8699 9.088 35.6269 9.924 34.5709 11.002C33.5149 12.058 32.6899 13.312 32.0959 14.764C31.5239 16.194 31.2379 17.756 31.2379 19.45ZM60.6092 19.45C60.6092 17.712 60.9832 16.161 61.7312 14.797C62.5012 13.433 63.5462 12.355 64.8662 11.563C66.1862 10.771 67.6822 10.375 69.3542 10.375C71.0482 10.375 72.5442 10.771 73.8422 11.563C75.1622 12.355 76.1962 13.433 76.9442 14.797C77.7142 16.161 78.0992 17.712 78.0992 19.45C78.0992 21.188 77.7142 22.739 76.9442 24.103C76.1962 25.467 75.1622 26.545 73.8422 27.337C72.5442 28.129 71.0482 28.525 69.3542 28.525C67.6822 28.525 66.1862 28.129 64.8662 27.337C63.5462 26.545 62.5012 25.467 61.7312 24.103C60.9832 22.739 60.6092 21.188 60.6092 19.45ZM57.6392 19.45C57.6392 21.122 57.9252 22.684 58.4972 24.136C59.0912 25.588 59.9162 26.853 60.9722 27.931C62.0282 28.987 63.2712 29.823 64.7012 30.439C66.1312 31.033 67.6822 31.33 69.3542 31.33C71.0482 31.33 72.5992 31.033 74.0072 30.439C75.4372 29.823 76.6802 28.987 77.7362 27.931C78.7922 26.853 79.6062 25.588 80.1782 24.136C80.7722 22.684 81.0692 21.122 81.0692 19.45C81.0692 17.756 80.7722 16.194 80.1782 14.764C79.6062 13.312 78.7922 12.058 77.7362 11.002C76.6802 9.924 75.4372 9.088 74.0072 8.494C72.5992 7.878 71.0482 7.57 69.3542 7.57C67.6822 7.57 66.1312 7.878 64.7012 8.494C63.2712 9.088 62.0282 9.924 60.9722 11.002C59.9162 12.058 59.0912 13.312 58.4972 14.764C57.9252 16.194 57.6392 17.756 57.6392 19.45ZM87.0105 19.45C87.0105 17.712 87.3845 16.161 88.1325 14.797C88.9025 13.433 89.9475 12.355 91.2675 11.563C92.5875 10.771 94.0835 10.375 95.7555 10.375C97.4495 10.375 98.9455 10.771 100.243 11.563C101.563 12.355 102.597 13.433 103.345 14.797C104.115 16.161 104.5 17.712 104.5 19.45C104.5 21.188 104.115 22.739 103.345 24.103C102.597 25.467 101.563 26.545 100.243 27.337C98.9455 28.129 97.4495 28.525 95.7555 28.525C94.0835 28.525 92.5875 28.129 91.2675 27.337C89.9475 26.545 88.9025 25.467 88.1325 24.103C87.3845 22.739 87.0105 21.188 87.0105 19.45ZM84.0405 19.45C84.0405 21.122 84.3265 22.684 84.8985 24.136C85.4925 25.588 86.3175 26.853 87.3735 27.931C88.4295 28.987 89.6725 29.823 91.1025 30.439C92.5325 31.033 94.0835 31.33 95.7555 31.33C97.4495 31.33 99.0005 31.033 100.408 30.439C101.838 29.823 103.081 28.987 104.137 27.931C105.193 26.853 106.007 25.588 106.579 24.136C107.173 22.684 107.47 21.122 107.47 19.45C107.47 17.756 107.173 16.194 106.579 14.764C106.007 13.312 105.193 12.058 104.137 11.002C103.081 9.924 101.838 9.088 100.408 8.494C99.0005 7.878 97.4495 7.57 95.7555 7.57C94.0835 7.57 92.5325 7.878 91.1025 8.494C89.6725 9.088 88.4295 9.924 87.3735 11.002C86.3175 12.058 85.4925 13.312 84.8985 14.764C84.3265 16.194 84.0405 17.756 84.0405 19.45ZM113.412 19.45C113.412 17.712 113.786 16.161 114.534 14.797C115.304 13.433 116.349 12.355 117.669 11.563C118.989 10.771 120.485 10.375 122.157 10.375C123.851 10.375 125.347 10.771 126.645 11.563C127.965 12.355 128.999 13.433 129.747 14.797C130.517 16.161 130.902 17.712 130.902 19.45C130.902 21.188 130.517 22.739 129.747 24.103C128.999 25.467 127.965 26.545 126.645 27.337C125.347 28.129 123.851 28.525 122.157 28.525C120.485 28.525 118.989 28.129 117.669 27.337C116.349 26.545 115.304 25.467 114.534 24.103C113.786 22.739 113.412 21.188 113.412 19.45ZM110.442 19.45C110.442 21.122 110.728 22.684 111.3 24.136C111.894 25.588 112.719 26.853 113.775 27.931C114.831 28.987 116.074 29.823 117.504 30.439C118.934 31.033 120.485 31.33 122.157 31.33C123.851 31.33 125.402 31.033 126.81 30.439C128.24 29.823 129.483 28.987 130.539 27.931C131.595 26.853 132.409 25.588 132.981 24.136C133.575 22.684 133.872 21.122 133.872 19.45C133.872 17.756 133.575 16.194 132.981 14.764C132.409 13.312 131.595 12.058 130.539 11.002C129.483 9.924 128.24 9.088 126.81 8.494C125.402 7.878 123.851 7.57 122.157 7.57C120.485 7.57 118.934 7.878 117.504 8.494C116.074 9.088 114.831 9.924 113.775 11.002C112.719 12.058 111.894 13.312 111.3 14.764C110.728 16.194 110.442 17.756 110.442 19.45ZM138.163 7.9V31H140.968V7.9H138.163ZM145.093 31C147.337 31 149.328 30.516 151.066 29.548C152.804 28.58 154.168 27.238 155.158 25.522C156.148 23.784 156.643 21.76 156.643 19.45C156.643 17.14 156.148 15.127 155.158 13.411C154.168 11.673 152.804 10.32 151.066 9.352C149.328 8.384 147.337 7.9 145.093 7.9H139.714V10.705H145.093C146.391 10.705 147.579 10.914 148.657 11.332C149.735 11.728 150.659 12.311 151.429 13.081C152.199 13.829 152.793 14.742 153.211 15.82C153.629 16.898 153.838 18.108 153.838 19.45C153.838 20.792 153.629 22.002 153.211 23.08C152.793 24.158 152.199 25.082 151.429 25.852C150.659 26.6 149.735 27.183 148.657 27.601C147.579 27.997 146.391 28.195 145.093 28.195H139.714V31H145.093ZM1.789 73.432L0.337 75.61C0.513 75.83 0.799 76.061 1.195 76.303C1.569 76.567 2.031 76.787 2.581 76.963C3.109 77.161 3.659 77.26 4.231 77.26C5.001 77.26 5.694 77.15 6.31 76.93C6.948 76.732 7.487 76.413 7.927 75.973C8.367 75.533 8.697 74.983 8.917 74.323C9.159 73.663 9.28 72.882 9.28 71.98V46.9H6.64V71.65C6.64 72.728 6.387 73.487 5.881 73.927C5.397 74.389 4.902 74.62 4.396 74.62C3.802 74.62 3.285 74.51 2.845 74.29C2.383 74.092 2.031 73.806 1.789 73.432ZM16.5477 58.45C16.5477 56.712 16.9217 55.161 17.6697 53.797C18.4397 52.433 19.4847 51.355 20.8047 50.563C22.1247 49.771 23.6207 49.375 25.2927 49.375C26.9867 49.375 28.4827 49.771 29.7807 50.563C31.1007 51.355 32.1347 52.433 32.8827 53.797C33.6527 55.161 34.0377 56.712 34.0377 58.45C34.0377 60.188 33.6527 61.739 32.8827 63.103C32.1347 64.467 31.1007 65.545 29.7807 66.337C28.4827 67.129 26.9867 67.525 25.2927 67.525C23.6207 67.525 22.1247 67.129 20.8047 66.337C19.4847 65.545 18.4397 64.467 17.6697 63.103C16.9217 61.739 16.5477 60.188 16.5477 58.45ZM13.5777 58.45C13.5777 60.122 13.8637 61.684 14.4357 63.136C15.0297 64.588 15.8547 65.853 16.9107 66.931C17.9667 67.987 19.2097 68.823 20.6397 69.439C22.0697 70.033 23.6207 70.33 25.2927 70.33C26.9867 70.33 28.5377 70.033 29.9457 69.439C31.3757 68.823 32.6187 67.987 33.6747 66.931C34.7307 65.853 35.5447 64.588 36.1167 63.136C36.7107 61.684 37.0077 60.122 37.0077 58.45C37.0077 56.756 36.7107 55.194 36.1167 53.764C35.5447 52.312 34.7307 51.058 33.6747 50.002C32.6187 48.924 31.3757 48.088 29.9457 47.494C28.5377 46.878 26.9867 46.57 25.2927 46.57C23.6207 46.57 22.0697 46.878 20.6397 47.494C19.2097 48.088 17.9667 48.924 16.9107 50.002C15.8547 51.058 15.0297 52.312 14.4357 53.764C13.8637 55.194 13.5777 56.756 13.5777 58.45ZM42.949 58.45C42.949 56.712 43.323 55.161 44.071 53.797C44.841 52.433 45.886 51.355 47.206 50.563C48.526 49.771 50.022 49.375 51.694 49.375C53.388 49.375 54.884 49.771 56.182 50.563C57.502 51.355 58.536 52.433 59.284 53.797C60.054 55.161 60.439 56.712 60.439 58.45C60.439 60.188 60.054 61.739 59.284 63.103C58.536 64.467 57.502 65.545 56.182 66.337C54.884 67.129 53.388 67.525 51.694 67.525C50.022 67.525 48.526 67.129 47.206 66.337C45.886 65.545 44.841 64.467 44.071 63.103C43.323 61.739 42.949 60.188 42.949 58.45ZM39.979 58.45C39.979 60.122 40.265 61.684 40.837 63.136C41.431 64.588 42.256 65.853 43.312 66.931C44.368 67.987 45.611 68.823 47.041 69.439C48.471 70.033 50.022 70.33 51.694 70.33C53.388 70.33 54.939 70.033 56.347 69.439C57.777 68.823 59.02 67.987 60.076 66.931C61.132 65.853 61.946 64.588 62.518 63.136C63.112 61.684 63.409 60.122 63.409 58.45C63.409 56.756 63.112 55.194 62.518 53.764C61.946 52.312 61.132 51.058 60.076 50.002C59.02 48.924 57.777 48.088 56.347 47.494C54.939 46.878 53.388 46.57 51.694 46.57C50.022 46.57 48.471 46.878 47.041 47.494C45.611 48.088 44.368 48.924 43.312 50.002C42.256 51.058 41.431 52.312 40.837 53.764C40.265 55.194 39.979 56.756 39.979 58.45ZM69.3503 58.45C69.3503 56.712 69.7243 55.161 70.4723 53.797C71.2423 52.433 72.2873 51.355 73.6073 50.563C74.9273 49.771 76.4233 49.375 78.0953 49.375C79.7893 49.375 81.2853 49.771 82.5833 50.563C83.9033 51.355 84.9373 52.433 85.6853 53.797C86.4553 55.161 86.8403 56.712 86.8403 58.45C86.8403 60.188 86.4553 61.739 85.6853 63.103C84.9373 64.467 83.9033 65.545 82.5833 66.337C81.2853 67.129 79.7893 67.525 78.0953 67.525C76.4233 67.525 74.9273 67.129 73.6073 66.337C72.2873 65.545 71.2423 64.467 70.4723 63.103C69.7243 61.739 69.3503 60.188 69.3503 58.45ZM66.3803 58.45C66.3803 60.122 66.6663 61.684 67.2383 63.136C67.8323 64.588 68.6573 65.853 69.7133 66.931C70.7693 67.987 72.0123 68.823 73.4423 69.439C74.8723 70.033 76.4233 70.33 78.0953 70.33C79.7893 70.33 81.3403 70.033 82.7483 69.439C84.1783 68.823 85.4213 67.987 86.4773 66.931C87.5333 65.853 88.3473 64.588 88.9193 63.136C89.5133 61.684 89.8103 60.122 89.8103 58.45C89.8103 56.756 89.5133 55.194 88.9193 53.764C88.3473 52.312 87.5333 51.058 86.4773 50.002C85.4213 48.924 84.1783 48.088 82.7483 47.494C81.3403 46.878 79.7893 46.57 78.0953 46.57C76.4233 46.57 74.8723 46.878 73.4423 47.494C72.0123 48.088 70.7693 48.924 69.7133 50.002C68.6573 51.058 67.8323 52.312 67.2383 53.764C66.6663 55.194 66.3803 56.756 66.3803 58.45ZM95.7516 58.45C95.7516 56.712 96.1256 55.161 96.8736 53.797C97.6436 52.433 98.6886 51.355 100.009 50.563C101.329 49.771 102.825 49.375 104.497 49.375C106.191 49.375 107.687 49.771 108.985 50.563C110.305 51.355 111.339 52.433 112.087 53.797C112.857 55.161 113.242 56.712 113.242 58.45C113.242 60.188 112.857 61.739 112.087 63.103C111.339 64.467 110.305 65.545 108.985 66.337C107.687 67.129 106.191 67.525 104.497 67.525C102.825 67.525 101.329 67.129 100.009 66.337C98.6886 65.545 97.6436 64.467 96.8736 63.103C96.1256 61.739 95.7516 60.188 95.7516 58.45ZM92.7816 58.45C92.7816 60.122 93.0676 61.684 93.6396 63.136C94.2336 64.588 95.0586 65.853 96.1146 66.931C97.1706 67.987 98.4136 68.823 99.8436 69.439C101.274 70.033 102.825 70.33 104.497 70.33C106.191 70.33 107.742 70.033 109.15 69.439C110.58 68.823 111.823 67.987 112.879 66.931C113.935 65.853 114.749 64.588 115.321 63.136C115.915 61.684 116.212 60.122 116.212 58.45C116.212 56.756 115.915 55.194 115.321 53.764C114.749 52.312 113.935 51.058 112.879 50.002C111.823 48.924 110.58 48.088 109.15 47.494C107.742 46.878 106.191 46.57 104.497 46.57C102.825 46.57 101.274 46.878 99.8436 47.494C98.4136 48.088 97.1706 48.924 96.1146 50.002C95.0586 51.058 94.2336 52.312 93.6396 53.764C93.0676 55.194 92.7816 56.756 92.7816 58.45ZM122.153 58.45C122.153 56.712 122.527 55.161 123.275 53.797C124.045 52.433 125.09 51.355 126.41 50.563C127.73 49.771 129.226 49.375 130.898 49.375C132.592 49.375 134.088 49.771 135.386 50.563C136.706 51.355 137.74 52.433 138.488 53.797C139.258 55.161 139.643 56.712 139.643 58.45C139.643 60.188 139.258 61.739 138.488 63.103C137.74 64.467 136.706 65.545 135.386 66.337C134.088 67.129 132.592 67.525 130.898 67.525C129.226 67.525 127.73 67.129 126.41 66.337C125.09 65.545 124.045 64.467 123.275 63.103C122.527 61.739 122.153 60.188 122.153 58.45ZM119.183 58.45C119.183 60.122 119.469 61.684 120.041 63.136C120.635 64.588 121.46 65.853 122.516 66.931C123.572 67.987 124.815 68.823 126.245 69.439C127.675 70.033 129.226 70.33 130.898 70.33C132.592 70.33 134.143 70.033 135.551 69.439C136.981 68.823 138.224 67.987 139.28 66.931C140.336 65.853 141.15 64.588 141.722 63.136C142.316 61.684 142.613 60.122 142.613 58.45C142.613 56.756 142.316 55.194 141.722 53.764C141.15 52.312 140.336 51.058 139.28 50.002C138.224 48.924 136.981 48.088 135.551 47.494C134.143 46.878 132.592 46.57 130.898 46.57C129.226 46.57 127.675 46.878 126.245 47.494C124.815 48.088 123.572 48.924 122.516 50.002C121.46 51.058 120.635 52.312 120.041 53.764C119.469 55.194 119.183 56.756 119.183 58.45ZM149.115 57.79H152.844C154.23 57.79 155.429 57.592 156.441 57.196C157.475 56.8 158.278 56.217 158.85 55.447C159.422 54.677 159.708 53.753 159.708 52.675C159.708 51.355 159.422 50.277 158.85 49.441C158.278 48.583 157.475 47.945 156.441 47.527C155.429 47.109 154.23 46.9 152.844 46.9H146.904V70H153.174C154.67 70 156.001 69.758 157.167 69.274C158.355 68.768 159.29 68.02 159.972 67.03C160.676 66.018 161.028 64.753 161.028 63.235C161.028 62.179 160.83 61.266 160.434 60.496C160.038 59.726 159.477 59.099 158.751 58.615C158.047 58.109 157.222 57.735 156.276 57.493C155.33 57.251 154.296 57.13 153.174 57.13H149.115V58.681H153.174C153.922 58.681 154.604 58.78 155.22 58.978C155.836 59.154 156.364 59.429 156.804 59.803C157.266 60.177 157.618 60.639 157.86 61.189C158.102 61.739 158.223 62.366 158.223 63.07C158.223 64.016 158.003 64.819 157.563 65.479C157.145 66.139 156.551 66.645 155.781 66.997C155.033 67.349 154.164 67.525 153.174 67.525H149.709V49.375H152.844C154.01 49.375 154.978 49.683 155.748 50.299C156.518 50.893 156.903 51.74 156.903 52.84C156.903 53.566 156.727 54.182 156.375 54.688C156.023 55.194 155.539 55.579 154.923 55.843C154.307 56.107 153.614 56.239 152.844 56.239H149.115V57.79ZM166.296 46.9L166.956 63.4H168.936L169.596 46.9H166.296ZM166.131 68.68C166.131 69.164 166.307 69.593 166.659 69.967C167.033 70.319 167.462 70.495 167.946 70.495C168.452 70.495 168.881 70.319 169.233 69.967C169.585 69.593 169.761 69.164 169.761 68.68C169.761 68.174 169.585 67.745 169.233 67.393C168.881 67.041 168.452 66.865 167.946 66.865C167.462 66.865 167.033 67.041 166.659 67.393C166.307 67.745 166.131 68.174 166.131 68.68Z" fill="black"/>
<circle cx="43" cy="20" r="6" fill="#FF3C3C"/>
<circle cx="25" cy="58" r="6" fill="#FF3C3C"/>
<circle cx="52" cy="58" r="6" fill="#FF3C3C"/>
<circle cx="78" cy="58" r="6" fill="#FF3C3C"/>
<circle cx="105" cy="59" r="6" fill="#FF3C3C"/>
<circle cx="131" cy="59" r="6" fill="#FF3C3C"/>
<circle cx="69" cy="20" r="6" fill="#FF3C3C"/>
<circle cx="95" cy="20" r="6" fill="#FF3C3C"/>
<circle cx="122" cy="20" r="6" fill="#FF3C3C"/>
</svg>
