<svg width="55" height="44" viewBox="0 0 55 44" fill="none" xmlns="http://www.w3.org/2000/svg">
<path d="M32.7031 37.6V17.8C32.7031 13.9333 33.4365 10.7333 34.9031 8.19999C37.7031 3.13332 42.6365 0.599991 49.7031 0.599991H51.5031L53.7031 0.999998V7.99999H53.3031C48.9031 7.99999 46.7031 10.2667 46.7031 14.8V20.2H49.3031C52.9031 20.2 54.7031 22.0667 54.7031 25.8V37.6C54.7031 41.6 52.9031 43.6 49.3031 43.6H38.1031C34.5031 43.6 32.7031 41.6 32.7031 37.6ZM18.1031 0.599991C18.9031 0.599991 19.9031 0.733327 21.1031 0.999998V7.99999H20.7031C16.4365 7.99999 14.3031 10.2667 14.3031 14.8V20.2H16.7031C20.4365 20.2 22.3031 22.0667 22.3031 25.8V37.6C22.3031 41.6 20.4365 43.6 16.7031 43.6H5.50313C2.03646 43.6 0.303126 41.6 0.303126 37.6V17.8C0.303126 6.33333 6.23646 0.599991 18.1031 0.599991Z" fill="#515151"/>
</svg>
